<svg width="50" height="20" viewBox="0 0 50 20" fill="none" xmlns="http://www.w3.org/2000/svg">
<g clip-path="url(#clip0_3209_489)">
<path d="M9.54872 2.5785C8.97784 3.25404 8.06442 3.78687 7.15101 3.71075C7.03683 2.79734 7.48402 1.82683 8.00733 1.2274C8.57822 0.532826 9.57727 0.038059 10.386 0C10.4812 0.951475 10.1101 1.88392 9.54872 2.5785ZM10.3765 3.89153C9.05396 3.81541 7.9217 4.6432 7.29373 4.6432C6.65624 4.6432 5.69525 3.92959 4.64863 3.94862C3.28802 3.96765 2.02256 4.73834 1.32798 5.96575C-0.0992326 8.42055 0.956904 12.0552 2.33654 14.0533C3.01209 15.0428 3.82084 16.1275 4.8865 16.0894C5.89506 16.0514 6.29468 15.4329 7.51257 15.4329C8.73997 15.4329 9.09201 16.0894 10.1577 16.0704C11.2614 16.0514 11.956 15.0809 12.6315 14.0913C13.4022 12.9686 13.7162 11.8744 13.7352 11.8173C13.7162 11.7983 11.6039 10.9895 11.5849 8.55376C11.5658 6.5176 13.25 5.5471 13.3261 5.49001C12.3746 4.08183 10.8903 3.92959 10.3765 3.89153ZM18.0168 1.13225V15.9657H20.3194V10.8944H23.5069C26.4184 10.8944 28.464 8.89629 28.464 6.00381C28.464 3.11132 26.4564 1.13225 23.583 1.13225H18.0168ZM20.3194 3.07326H22.974C24.9721 3.07326 26.1139 4.13892 26.1139 6.01332C26.1139 7.88773 24.9721 8.96289 22.9645 8.96289H20.3194V3.07326ZM32.6696 16.0799C34.1158 16.0799 35.4574 15.3473 36.0663 14.1865H36.1139V15.9657H38.2452V8.5823C38.2452 6.44148 36.5325 5.06185 33.897 5.06185C31.4517 5.06185 29.6439 6.46051 29.5773 8.38249H31.6515C31.8227 7.46908 32.6696 6.86965 33.8304 6.86965C35.2385 6.86965 36.0283 7.52617 36.0283 8.73454V9.55281L33.1548 9.72407C30.4812 9.88582 29.0349 10.98 29.0349 12.883C29.0349 14.8049 30.5287 16.0799 32.6696 16.0799ZM33.288 14.3197C32.0606 14.3197 31.2804 13.7298 31.2804 12.8259C31.2804 11.8934 32.0321 11.3511 33.4688 11.2655L36.0283 11.1037V11.941C36.0283 13.3302 34.8484 14.3197 33.288 14.3197ZM41.0901 20C43.3356 20 44.3917 19.1437 45.3147 16.5461L49.3584 5.20457H47.0178L44.3061 13.9677H44.2585L41.5468 5.20457H39.1396L43.0406 16.0038L42.8313 16.6603C42.4793 17.7736 41.9084 18.2017 40.8903 18.2017C40.7095 18.2017 40.3575 18.1827 40.2148 18.1637V19.9429C40.348 19.981 40.9188 20 41.0901 20Z" fill="white"/>
</g>
<defs>
<clipPath id="clip0_3209_489">
<rect width="48.7155" height="20" fill="white" transform="translate(0.642212)"/>
</clipPath>
</defs>
</svg>
